<svg version="1.2" xmlns="http://www.w3.org/2000/svg" viewBox="0 0 1152 1152" width="1152" height="1152">
	<title>CommingSoonImage</title>
	<defs>
		<radialGradient id="g1" cx="0" cy="0" r="1" gradientUnits="userSpaceOnUse" gradientTransform="matrix(1016.301,0,0,1016.301,571.464,410.047)">
			<stop offset=".059" stop-color="#ececec"/>
			<stop offset=".965" stop-color="#000000"/>
		</radialGradient>
		<radialGradient id="g2" cx="0" cy="0" r="1" gradientUnits="userSpaceOnUse" gradientTransform="matrix(1016.297,0,0,1016.297,571.463,410.047)">
			<stop offset=".059" stop-color="#ececec"/>
			<stop offset=".965" stop-color="#000000"/>
		</radialGradient>
		<radialGradient id="g3" cx="0" cy="0" r="1" gradientUnits="userSpaceOnUse" gradientTransform="matrix(1016.301,0,0,1016.301,571.465,410.047)">
			<stop offset=".059" stop-color="#ececec"/>
			<stop offset=".965" stop-color="#000000"/>
		</radialGradient>
		<radialGradient id="g4" cx="0" cy="0" r="1" gradientUnits="userSpaceOnUse" gradientTransform="matrix(1016.301,0,0,1016.301,571.464,410.047)">
			<stop offset=".059" stop-color="#ececec"/>
			<stop offset=".965" stop-color="#000000"/>
		</radialGradient>
		<radialGradient id="g5" cx="0" cy="0" r="1" gradientUnits="userSpaceOnUse" gradientTransform="matrix(1016.302,0,0,1016.302,571.464,410.047)">
			<stop offset=".059" stop-color="#ececec"/>
			<stop offset=".965" stop-color="#000000"/>
		</radialGradient>
		<radialGradient id="g6" cx="0" cy="0" r="1" gradientUnits="userSpaceOnUse" gradientTransform="matrix(1016.301,0,0,1016.301,571.464,410.047)">
			<stop offset=".059" stop-color="#ececec"/>
			<stop offset=".965" stop-color="#000000"/>
		</radialGradient>
		<radialGradient id="g7" cx="0" cy="0" r="1" gradientUnits="userSpaceOnUse" gradientTransform="matrix(1016.304,0,0,1016.304,571.464,410.047)">
			<stop offset=".059" stop-color="#ececec"/>
			<stop offset=".965" stop-color="#000000"/>
		</radialGradient>
		<linearGradient id="g8" x2="1" gradientUnits="userSpaceOnUse" gradientTransform="matrix(71.056,0,0,81.821,536.264,83.496)">
			<stop offset="0" stop-color="#020202"/>
			<stop offset=".122" stop-color="#666666"/>
			<stop offset=".35" stop-color="#171717"/>
			<stop offset=".752" stop-color="#5d5d5d"/>
			<stop offset="1" stop-color="#0e0e0e"/>
		</linearGradient>
		<linearGradient id="g9" x2="1" gradientUnits="userSpaceOnUse" gradientTransform="matrix(99.479,0,0,131.156,522.052,97.784)">
			<stop offset="0" stop-color="#020202"/>
			<stop offset=".122" stop-color="#666666"/>
			<stop offset=".35" stop-color="#171717"/>
			<stop offset=".752" stop-color="#5d5d5d"/>
			<stop offset="1" stop-color="#0e0e0e"/>
		</linearGradient>
	</defs>
	<style>
		.s0 { mix-blend-mode: screen;fill: url(#g1) } 
		.s1 { mix-blend-mode: screen;fill: url(#g2) } 
		.s2 { mix-blend-mode: screen;fill: url(#g3) } 
		.s3 { mix-blend-mode: screen;fill: url(#g4) } 
		.s4 { mix-blend-mode: screen;fill: url(#g5) } 
		.s5 { mix-blend-mode: screen;fill: url(#g6) } 
		.s6 { mix-blend-mode: screen;fill: url(#g7) } 
		.s7 { fill: #141414 } 
		.s8 { fill: url(#g8) } 
		.s9 { fill: url(#g9) } 
		.s10 { mix-blend-mode: screen;fill: #ffffff } 
	</style>
	<g id="_Artboards_">
	</g>
	<g id="Layer 1">
		<g id="&lt;Group&gt;">
			<g id="&lt;Group&gt;">
				<path id="&lt;Path&gt;" class="s0" d="m355.6 915l420.4-25.4 48.3 77 69.6-399.2-626.8 45.1z"/>
				<path id="&lt;Path&gt;" class="s1" d="m272.3 584.1q12.5 10.5 32.5 9.2 22.6-1.5 35.1-12.6 12.6-11.1 12.6-33v-31.7l-37.9 2.5v28.8q0 7.2-2.7 10.2-2.6 2.9-6.2 3.2-4 0.2-6.4-3.4-2.4-3.6-2.4-8.8v-79.3q0-5.9 1.7-9.3 1.7-3.5 7.1-3.8 8.9-0.6 8.9 14.5v19.4l37-2.4v-29.6q0-9.8-3.6-17.1-3.6-7.3-9.9-11.5-6.4-4.2-14.6-6-8.2-1.9-17.8-1.2-23.8 1.6-34.9 14.7-11.1 13.1-11.1 38v77.9q0 20.8 12.6 31.3z"/>
				<path id="&lt;Compound Path&gt;" fill-rule="evenodd" class="s2" d="m368.1 560.5q-2.6-8.2-2.6-18.4v-80q0-20.9 11.4-33.2 11.4-12.3 34.4-14.2 23.6-1.2 35.1 9.5 11.4 10.8 11.4 31.8v79.9q0 10.2-2.6 18.8-2.6 8.5-7.9 15.4-5.4 6.9-14.5 11.1-9 4.2-20.9 4.6-12.4 1.2-21.5-1.8-9.1-3-14.4-9.1-5.3-6.2-7.9-14.4zm34.4-25.9q0 2.4 0 3.7 0.1 1.4 0.3 4 0.2 2.6 0.8 4.2 0.6 1.6 1.5 3.3 1 1.8 2.6 2.6 1.7 0.7 3.9 0.6 2-0.1 3.6-1 1.5-0.9 2.4-2.6 0.9-1.7 1.5-3.2 0.5-1.5 0.7-4 0.2-2.5 0.3-3.8 0-1.3 0-3.7c0-0.3 0-68 0-68.2q0-0.6 0.1-2.6 0-1.9 0-2.8-0.1-0.9-0.1-2.8-0.1-1.8-0.3-2.8-0.3-1-0.7-2.5-0.4-1.5-1-2.2-0.6-0.8-1.5-1.6-0.8-0.9-2.1-1.1-1.3-0.3-2.9-0.2-2.2 0.1-3.9 1-1.6 0.8-2.6 2.5-0.9 1.7-1.6 3.1-0.6 1.3-0.8 3.9-0.2 2.6-0.2 3.7 0 1.1 0 3.8 0 0.4 0 0.7c0 0.2 0 67.8 0 68z"/>
				<path id="&lt;Path&gt;" class="s3" d="m510 456.7l20.7 119.7 33.6-2.3 19.3-122.3v121l36.4-2.4v-167.8l-57.5 3.8-15.7 88.6-15.7-86.5-57 3.8v167.8l35.9-2.4z"/>
				<path id="&lt;Path&gt;" class="s4" d="m674.7 399l-36.2 2.4v167.8l36.2-2.4z"/>
				<path id="&lt;Path&gt;" class="s5" d="m729.8 479.1l18.7 82.7 36.6-2.4v-167.8l-36.1 2.4v80.3l-17.3-79.1-38.5 2.5v167.8l36.6-2.4z"/>
				<path id="&lt;Path&gt;" class="s6" d="m841.8 557.5q20.9-1.4 30.9-18.1l6.4 13.8 14.6-1v-97.8l-45.4 3.1v28.9l10-0.6v19.3q0 9.8-1.8 14.3-1.9 4.5-7.5 4.9-3.4 0.2-5.6-1.2-2.2-1.3-3.1-4.2-1-2.9-1.3-5.4-0.2-2.5-0.2-6.2v-64.9q0-6.3 0.1-9.3 0.1-2.9 0.6-6.3 0.5-3.3 1.7-4.7 1.1-1.3 3-2.3 2-1 5.2-1.2 1.6-0.1 2.9 0.2 1.3 0.3 2.8 1.3 1.5 1 2.4 3.6 0.8 2.5 0.8 6.5v13.3l35.8-2.4q0-6.8-0.3-11.8-0.2-5.1-1-10.9-0.7-5.8-2.2-9.8-1.4-4.1-3.7-8.2-2.3-4.1-5.8-6.8-3.5-2.7-8.1-4.7-4.7-2-11-2.7-6.4-0.6-14.3-0.1-6.4 0.4-11.9 1.6-5.4 1.1-12.1 4.4-6.7 3.3-11.4 8.4-4.6 5.1-7.8 14.2-3.2 9-3.2 20.9v72.7q0 51.9 40.5 49.2z"/>
			</g>
			<g id="&lt;Group&gt;">
				<path id="&lt;Compound Path&gt;" class="s7" d="m374.8 863.6q-34.7 2.3-49.4-12.3-14.8-14.7-14.8-47.5v-21.8l49.2-3.3v20q0 21.6 11.9 20.8 5.5-0.4 8.7-4.8 3.1-4.4 3.1-11.3 0-8.9-2.4-14.9-2.5-6-7.5-11.2-5-5.2-16.5-14.2l-21.1-16.7q-25.4-20-25.4-47.3 0-29.7 15.3-45.2 15.4-15.5 42.2-17.3 0.7 0 1.3-0.1 0.6 0 7.5-0.5 6.9-0.4 17.8 2 10.9 2.4 19.4 9.2 8.5 6.8 12.7 19.6 4.3 12.8 4.3 31.7l-50.5 3.4-0.3-13.5q-0.1-3.7-3.3-6.5-3.1-2.7-6.9-2.4-4.9 0.3-8.4 3.5-3.5 3.3-3.5 8 0 9.5 14 19.8l30.2 22.1q7.3 5.4 12.7 11.1 5.5 5.7 8.7 11.5 3.2 5.7 5.1 10.4 2 4.7 2.8 10.3 0.8 5.6 0.9 8.5 0.1 2.9 0.1 7.5 0 11.7-1.5 21.4-1.6 9.7-5.5 18.9-4 9.1-10.4 15.5-6.4 6.4-16.7 10.6-10.2 4.1-23.8 5z"/>
				<path id="&lt;Compound Path&gt;" fill-rule="evenodd" class="s7" d="m447.6 796.1v-106.3q0-27.8 15.2-44.2 15.2-16.3 45.7-18.8 31.4-1.6 46.6 12.7 15.2 14.3 15.2 42.2v106.2q0 13.6-3.4 24.9-3.5 11.4-10.6 20.6-7.1 9.1-19.1 14.7-12.1 5.5-27.8 6.2-16.6 1.5-28.7-2.5-12-3.9-19.1-12.1-7.1-8.2-10.5-19.1-3.5-10.9-3.5-24.5zm61.4 14.5q2.6-0.2 4.7-1.4 2-1.1 3.2-3.4 1.2-2.2 2-4.2 0.7-2.1 0.9-5.4 0.3-3.3 0.4-5 0.1-1.8 0.1-4.9 0-0.7 0-1.1v-89.6q0-0.8 0-3.3 0.1-2.6 0-3.8 0-1.3-0.1-3.7-0.1-2.4-0.4-3.8-0.4-1.3-0.9-3.3-0.5-2-1.3-3-0.9-0.9-2-2.1-1.1-1.1-2.8-1.5-1.7-0.3-3.8-0.2-3 0.2-5.2 1.3-2.2 1.2-3.5 3.4-1.2 2.3-2.1 4.1-0.8 1.8-1.1 5.2-0.3 3.5-0.3 4.9 0 1.5 0 5 0 0.6 0 1 0 0.4 0 0.8v89.6q0 3.1 0.1 4.9 0 1.8 0.3 5.3 0.3 3.5 1.1 5.6 0.8 2.1 2 4.4 1.3 2.3 3.5 3.4 2.2 1 5.2 0.8z"/>
				<path id="&lt;Compound Path&gt;" fill-rule="evenodd" class="s7" d="m589 786.7v-106.3q0-27.8 15.2-44.2 15.2-16.3 45.7-18.8 31.4-1.6 46.6 12.7 15.2 14.3 15.2 42.2v106.2q0 13.6-3.5 24.9-3.4 11.4-10.5 20.5-7.1 9.2-19.2 14.8-12 5.5-27.7 6.1-16.6 1.6-28.7-2.4-12.1-3.9-19.1-12.2-7.1-8.2-10.6-19.1-3.4-10.9-3.4-24.4zm61.3 14.5q2.7-0.2 4.8-1.4 2-1.1 3.2-3.4 1.2-2.3 1.9-4.3 0.7-2 1-5.3 0.3-3.3 0.4-5 0.1-1.8 0.1-4.9 0-0.7 0-1.1v-89.6q0-0.8 0-3.3 0.1-2.6 0-3.8 0-1.3-0.1-3.7-0.1-2.5-0.4-3.8-0.4-1.3-0.9-3.3-0.5-2-1.3-3-0.9-1-2-2.1-1.1-1.1-2.8-1.5-1.7-0.3-3.9-0.2-2.9 0.2-5.1 1.3-2.2 1.2-3.5 3.4-1.3 2.3-2.1 4.1-0.9 1.8-1.1 5.2-0.3 3.5-0.3 4.9 0 1.5 0 5 0 0.6 0 1 0 0.4 0 0.8v89.6q0 3.1 0.1 4.9 0 1.8 0.3 5.3 0.3 3.5 1.1 5.6 0.7 2.1 2 4.4 1.3 2.3 3.5 3.4 2.2 1 5.1 0.8z"/>
				<path id="&lt;Compound Path&gt;" class="s7" d="m855.5 606.1v223l-48.6 3.3-24.9-110v111.6l-48.7 3.2v-222.9l51.2-3.4 22.9 105.1v-106.7z"/>
			</g>
			<g id="&lt;Group&gt;">
				<g id="&lt;Group&gt;">
					<path id="&lt;Path&gt;" class="s8" d="m571.8 83.5c-19.6 0-35.5 5.3-35.5 11.8v70h71v-70c0-6.5-15.9-11.8-35.5-11.8z"/>
					<path id="&lt;Path&gt;" class="s9" d="m571.8 97.8c-27.5 0-49.7 7.4-49.7 16.6v114.5h99.4v-114.5c0-9.2-22.2-16.6-49.7-16.6z"/>
				</g>
				<g id="&lt;Group&gt;">
				</g>
				<path id="&lt;Path&gt;" class="s10" d="m571.8 239.8c27.5 0 49.7-4.8 49.7-10.9 0-6-22.2-10.9-49.7-10.9-27.5 0-49.7 4.9-49.7 10.9 0 6.1 22.2 10.9 49.7 10.9z"/>
			</g>
		</g>
	</g>
</svg>